<?xml version="1.0" encoding="UTF-8" standalone="no" ?>
<COLLADA xmlns="http://www.collada.org/2005/11/COLLADASchema" version="1.4.1">
  <asset>
    <contributor>
      <author>Assimp</author>
      <authoring_tool>Assimp Exporter</authoring_tool>
    </contributor>
    <created>2018-06-29T03:33:23</created>
    <modified>2018-06-29T03:33:23</modified>
    <unit name="meter" meter="1" />
    <up_axis>Y_UP</up_axis>
  </asset>
  <library_effects>
    <effect id="m0mat-fx" name="m0mat">
      <profile_COMMON>
        <technique sid="standard">
          <phong>
            <diffuse>
              <color sid="diffuse">0.6   0.6   0.6   1</color>
            </diffuse>
          </phong>
        </technique>
      </profile_COMMON>
    </effect>
  </library_effects>
  <library_materials>
    <material id="m0mat" name="m0mat">
      <instance_effect url="#m0mat-fx"/>
    </material>
  </library_materials>
  <library_geometries>
    <geometry id="meshId0" name="meshId0_name" >
      <mesh>
        <source id="meshId0-positions" name="meshId0-positions">
          <float_array id="meshId0-positions-array" count="90"> 0.441129 -0.661693 0 -0.588172 -0.661693 0 -0.588172 -0.808736 0 -0.588172 -0.808736 0 0.588172 -0.808736 0 0.441129 -0.661693 0 0.441129 -0.661693 0 0.588172 -0.808736 0 0.588172 0.0735215 0 0.441129 -0.0735215 0 0.441129 -0.661693 0 0.588172 0.0735215 0 -0.441129 0.0735215 0 0.441129 -0.0735215 0 0.588172 0.0735215 0 -0.441129 0.0735215 0 -0.588172 -0.0735215 0 0.441129 -0.0735215 0 -0.441129 0.0735215 0 -0.588172 0.808736 0 -0.588172 -0.0735215 0 -0.441129 0.0735215 0 -0.441129 0.661693 0 -0.588172 0.808736 0 -0.588172 0.808736 0 -0.441129 0.661693 0 0.588172 0.661693 0 -0.588172 0.808736 0 0.588172 0.661693 0 0.588172 0.808736 0 </float_array>
          <technique_common>
            <accessor count="30" offset="0" source="#meshId0-positions-array" stride="3">
              <param name="X" type="float" />
              <param name="Y" type="float" />
              <param name="Z" type="float" />
            </accessor>
          </technique_common>
        </source>
        <vertices id="meshId0-vertices">
          <input semantic="POSITION" source="#meshId0-positions" />
        </vertices>
        <polylist count="10" material="defaultMaterial">
          <input offset="0" semantic="VERTEX" source="#meshId0-vertices" />
          <vcount>3 3 3 3 3 3 3 3 3 3 </vcount>
          <p>0 1 2 3 4 5 6 7 8 9 10 11 12 13 14 15 16 17 18 19 20 21 22 23 24 25 26 27 28 29 </p>
        </polylist>
      </mesh>
    </geometry>
  </library_geometries>
  <library_visual_scenes>
    <visual_scene id="Scene" name="Scene">
      <node id="&lt;OFFRoot&gt;" name="&lt;OFFRoot&gt;">
        <matrix>1 0 0 0 0 1 0 0 0 0 1 0 0 0 0 1</matrix>
        <instance_geometry url="#meshId0">
          <bind_material>
            <technique_common>
              <instance_material symbol="defaultMaterial" target="#m0mat" />
            </technique_common>
          </bind_material>
        </instance_geometry>
      </node>
    </visual_scene>
  </library_visual_scenes>
  <scene>
    <instance_visual_scene url="#Scene" />
  </scene>
</COLLADA>
